<svg width="20" height="19" viewBox="0 0 20 19" fill="none" xmlns="http://www.w3.org/2000/svg">
<path d="M15.5399 15.9664L15.1828 15.0695C15.0022 14.6145 14.7217 14.2064 14.3625 13.8737L14.2972 13.8136C13.732 13.2891 12.9892 12.9973 12.2179 12.9973H7.10209C6.33075 12.9973 5.58798 13.2891 5.02171 13.8125L4.95641 13.8737C4.59727 14.2064 4.31771 14.6145 4.1361 15.0695L3.77899 15.9664" stroke="white" stroke-width="1.77404" stroke-linecap="round" stroke-linejoin="round"/>
<path d="M12.1849 2.81998C13.5795 4.21456 13.5795 6.47561 12.1849 7.87019C10.7904 9.26477 8.52932 9.26477 7.13474 7.87019C5.74016 6.47561 5.74016 4.21456 7.13474 2.81998C8.52932 1.4254 10.7904 1.4254 12.1849 2.81998" stroke="white" stroke-width="1.77404" stroke-linecap="round" stroke-linejoin="round"/>
</svg>
